<?xml version="1.0" encoding="utf-8"?>
<!-- Generator: Adobe Illustrator 23.0.1, SVG Export Plug-In . SVG Version: 6.00 Build 0)  -->
<svg version="1.1" id="el_q9TJh6D9M" xmlns="http://www.w3.org/2000/svg" xmlns:xlink="http://www.w3.org/1999/xlink" x="0px"
	 y="0px" viewBox="0 0 100 107.8" style="enable-background:new 0 0 100 107.8;" xml:space="preserve">
<style type="text/css">
	.st0{fill-rule:evenodd;clip-rule:evenodd;fill:#EF7911;}
	.st1{fill-rule:evenodd;clip-rule:evenodd;fill:#FFD25C;}
	.st2{fill-rule:evenodd;clip-rule:evenodd;fill:#3065AF;}
	.st3{fill-rule:evenodd;clip-rule:evenodd;fill:#66AADD;}
	.st4{fill-rule:evenodd;clip-rule:evenodd;fill:#E40E20;}
	.st5{fill-rule:evenodd;clip-rule:evenodd;fill:#E6826B;}
	.st6{fill-rule:evenodd;clip-rule:evenodd;fill:#421152;}
	.st7{fill-rule:evenodd;clip-rule:evenodd;fill:#9B84AB;}
	.st8{fill:#421152;}
	.st9{fill:#EF7911;}
</style>
<title>both in one</title>
<desc>Created with Sketch.</desc>
<g id="el_S-2d9yQa5L">
	<g id="Calque_2_-_copie">
		<path class="st0" d="M19.1,48.6c0,0,0.5,0.7,0.7,0c-0.2-1.6-0.4-3.1-0.4-4.5v-0.9c0-14.4,11.7-26.1,26.1-26.1V8.5
			c-8.3,0-16.3,2.9-22.6,8.4C15,23.7,12.8,34.7,16.8,44C17.3,45.5,18.2,47.1,19.1,48.6z"/>
		<path class="st1" d="M45.5,11.7v-9c0,0-6.6-0.9-6.3,9.7C25.9,15.7,19.5,29.3,19.5,43c0-13.7,11.1-26.1,26.1-26.1L45.5,11.7
			L45.5,11.7z"/>
		<path class="st2" d="M33.8,19.5c0,0-0.7,0.5,0,0.7c1.6-0.4,3.1-0.4,4.7-0.4h0.9c14.4,0,26.1,11.7,26.1,26.1h8.6
			c0-8.3-2.9-16.3-8.4-22.6c-6.8-7.9-17.8-10.1-27.1-6.1C36.7,17.7,35.3,18.4,33.8,19.5z"/>
		<path class="st3" d="M70.5,45.9h9c0,0,0.9-6.6-9.7-6.3c-3.2-13.3-16.9-19.8-30.5-19.8c13.7,0,26.1,11.1,26.1,26.1H70.5L70.5,45.9z
			"/>
		<path class="st4" d="M62.6,33.8c0,0-0.5-0.7-0.7,0c0.2,1.6,0.4,3.1,0.4,4.5v0.9c0,14.4-11.7,26.1-26.1,26.1v8.6
			c8.3,0,16.3-2.9,22.6-8.4c7.9-6.8,10.1-17.8,6.1-27.1C64.4,36.9,63.5,35.3,62.6,33.8z"/>
		<path class="st5" d="M36.2,70.5v9c0,0,6.6,0.9,6.3-9.7c13.3-3.2,19.8-16.9,19.8-30.5c0,13.7-11.1,26.1-26.1,26.1L36.2,70.5
			L36.2,70.5z"/>
		<path class="st6" d="M48.2,62.9c0,0,0.7-0.5,0-0.7c-1.6,0.2-3.1,0.4-4.5,0.4h-0.9c-14.4,0-26.1-11.7-26.1-26.1H8.1
			c0,8.3,2.9,16.3,8.4,22.6c6.8,7.9,17.8,10.1,27.1,6.1C45.2,64.7,46.8,64,48.2,62.9z"/>
		<path class="st7" d="M11.4,36.5h-9c0,0-0.9,6.6,9.7,6.3C15.3,56.1,29,62.6,42.6,62.6c-13.7,0-26.1-11.1-26.1-26.1H11.4L11.4,36.5z
			"/>
		<path class="st0" d="M19.5,43c0-6.6,2.7-13.1,7.2-18h-9.9c-2.5,6.1-2.7,12.8,0,18.9c0.5,1.6,1.4,3.2,2.3,4.5c0,0,0.5,0.7,0.7,0
			c-0.2-1.6-0.4-3.1-0.4-4.5L19.5,43z"/>
		<path class="st1" d="M23.8,25c-2.9,5.4-4.3,11.7-4.3,18c0-6.6,2.7-13.3,7.4-18H23.8z"/>
	</g>
</g>
<path class="st8" d="M20.6,95.8l6.5-9.5v16.5h-0.7V88.5L20.5,97l-5.8-8.5v14.3h-0.7V86.3L20.6,95.8z"/>
<path class="st8" d="M30,102.7V88.8h0.7v13.9H30z"/>
<path class="st8" d="M30,87.6v-1.3h0.7v1.3H30z"/>
<path class="st8" d="M68.2,102.7V88.8h0.7v13.9H68.2z"/>
<path class="st8" d="M68.2,87.6v-1.3h0.7v1.3H68.2z"/>
<path class="st9" d="M43,86.3h0.7v11.4c0,2.7-2.2,5-5,5c-2.7,0-5-2.2-5-5c0,0,0,0,0,0V86.3h0.7v11.4c0,2.4,1.9,4.3,4.3,4.3
	s4.3-1.9,4.3-4.3L43,86.3z"/>
<path class="st8" d="M65.8,86.3l-5.4,16.5l-4.5-14l-4.5,14l-5.3-16.5h0.7l4.6,13.8l4.5-13.5l4.5,13.6L65,86.3H65.8z"/>
</svg>
